{"title":"PNYC: Portishead - Roseland New York (1998) [VOB] - insinuendo","uid":5649504,"size":4135524352,"categoryP":"video","categoryS":"music_videos","magnet":"?xt=urn:btih:2432c9f562920640a28f5b380f1cee3e5b5b2c6c&amp;dn=PNYC%3A+Portishead+-+Roseland+New+York+%281998%29+%5BVOB%5D+-+insinuendo&amp;tr=udp%3A%2F%2Ftracker.openbittorrent.com%3A80&amp;tr=udp%3A%2F%2Fopen.demonii.com%3A1337&amp;tr=udp%3A%2F%2Ftracker.coppersurfer.tk%3A6969&amp;tr=udp%3A%2F%2Fexodus.desync.com%3A6969","seeders":4,"leechers":1,"uploader":"insinuendo","files":1,"time":1277609938,"description":"hexagon.cc\n  &lt;a href=&quot; http://concerts.hexagon.cc/&quot; rel=&quot;nofollow&quot; target=&quot;_NEW&quot;&gt; http://concerts.hexagon.cc/&lt;/a&gt;\n\n\nGeneral\nComplete name                    : C:UsersinsinuendoDownloadsPORTISHEAD_NYC.vob\nFormat                           : MPEG-PS\nFile size                        : 3.85 GiB\nDuration                         : 1h 23mn\nOverall bit rate                 : 6 582 Kbps\n &lt;a href=&quot;\nhttp://www.imdb.com/title/tt0133157/&quot; rel=&quot;nofollow&quot; target=&quot;_NEW&quot;&gt;\nhttp://www.imdb.com/title/tt0133157/&lt;/a&gt;\n\nVideo\nID                               : 224 (0xE0)\nFormat                           : MPEG Video\nFormat version                   : Version 2\nFormat profile                   : Main@Main\nFormat settings, Matrix          : Default\nDuration                         : 1h 23mn\nBit rate mode                    : Variable\nBit rate                         : 5 873 Kbps\nNominal bit rate                 : 8 000 Kbps\nWidth                            : 720 pixels\nHeight                           : 480 pixels\nDisplay aspect ratio             : 4:3\nFrame rate                       : 29.970 fps\nStandard                         : NTSC\nColorimetry                      : 4:2:0\nScan type                        : Interlaced\nScan order                       : Top Field First\nBits/(Pixel*Frame)               : 0.567\nStream size                      : 3.44 GiB (89%)\n\nAudio\nID                               : 129 (0x81)\nFormat                           : AC-3\nFormat/Info                      : Audio Coding 3\nDuration                         : 1h 23mn\nBit rate mode                    : Constant\nBit rate                         : 448 Kbps\nChannel(s)                       : 6 channels\nChannel positions                : Front: L C R, Surround: L R, LFE\nSampling rate                    : 48.0 KHz\nStream size                      : 268 MiB (7%)","torrent":{"xt":"urn:btih:2432c9f562920640a28f5b380f1cee3e5b5b2c6c","amp;dn":"PNYC%3A+Portishead+-+Roseland+New+York+%281998%29+%5BVOB%5D+-+insinuendo","amp;tr":["udp%3A%2F%2Ftracker.openbittorrent.com%3A80","udp%3A%2F%2Fopen.demonii.com%3A1337","udp%3A%2F%2Ftracker.coppersurfer.tk%3A6969","udp%3A%2F%2Fexodus.desync.com%3A6969"],"infoHash":"2432c9f562920640a28f5b380f1cee3e5b5b2c6c","infoHashBuffer":{"type":"Buffer","data":[36,50,201,245,98,146,6,64,162,143,91,56,15,28,238,62,91,91,44,108]},"announce":[],"urlList":[]}}